# xmcd CD Database Entry
#
# Track frame offsets:
# 182
# 13782
# 25557
# 37132
# 56985
# 71732
# 85660
# 98045
# 108610
# 112465
# 121207
# 135672
# 142015
# 158062
# 167110
# 183160
# 200105
# 215785
# 233420
# 242235
# 256885
# 276277
# 287115
#
# Disc length: 3974 seconds
#
# Revision: 4
# Processed by: cddbd v1.4PL0 Copyright (c) Steve Scherf et al.
# Submitted via: tcd 2.0b
#
DISCID=600f8417
DTITLE=Capella Istropolitana - Jozef Kopelman/Vivaldi - L'Estro Armo
DTITLE=nico Op.3, Nos. 1, 2, 4, 7, 8, 10 and 11 (Naxos 8.550160, 1988)
DTITLE=
DYEAR=1900
DGENRE=
TTITLE0=Concerto No. 1 in D - Allegro
TTITLE1=Concerto No. 1 in D - Largo e spiccato
TTITLE2=Concerto No. 1 in D - Allegro
TTITLE3=Concerto No. 2 in G Minor - Adagio e spiccato-Allegro
TTITLE4=Concerto No. 2 in G Minor - Larghetto
TTITLE5=Concerto No. 2 in G Minor - Allegro
TTITLE6=Concerto No. 4 in E Minor - Andante
TTITLE7=Concerto No. 4 in E Minor - Allegro assai
TTITLE8=Concerto No. 4 in E Minor - Adagio
TTITLE9=Concerto No.4 in E Minor - Allegro
TTITLE10=Concerto No. 7 in F - Andante
TTITLE11=Concerto No. 7 in F - Adagio
TTITLE12=Concerto No. 7 in F - Allegro-Adagio
TTITLE13=Concerto No. 7 in F - Allegro
TTITLE14=Concerto No. 8 in A Minor - Allegro
TTITLE15=Concerto No. 8 in A Minor - Larghetto e spiritoso
TTITLE16=Concerto No. 8 in A Minor - Allegro
TTITLE17=Concerto No. 10 in B Minor - Allegro
TTITLE18=Concerto No. 10 in B Minor - Largo-Larghetto
TTITLE19=Concerto No. 10 in B Minor - Allegro
TTITLE20=Concerto No. 11 in D Minor - Allegro
TTITLE21=Concerto No. 11 in D Minor - Largo e spiccato
TTITLE22=Concerto No. 11 in D Minor - Allegro
EXTD=Recorded at the Moyzes Hall in Bratislava from September to D
EXTD=ecember 1988.\nProducers: Karol Kopernicky, Hubert Geschwandt
EXTD=ner\nMusic Notes: Keith Anderson
EXTT0=
EXTT1=
EXTT2=
EXTT3=
EXTT4=
EXTT5=
EXTT6=
EXTT7=
EXTT8=
EXTT9=
EXTT10=
EXTT11=
EXTT12=
EXTT13=
EXTT14=
EXTT15=
EXTT16=
EXTT17=
EXTT18=
EXTT19=
EXTT20=
EXTT21=
EXTT22=
PLAYORDER=
